<?xml version="1.0" encoding="UTF-8"?>
<svg xmlns="http://www.w3.org/2000/svg" viewBox="0 0 1095 1095" width="1095" height="1095">
<path d="M449.5 253.22C514.83 253.22 580.17 253.22 645.5 253.22C646.69 248.23 646.15 242.69 646.15 237.5C646.15 227.83 646.15 218.17 646.15 208.5C646.15 177.83 646.15 147.17 646.15 116.5C646.15 105.17 646.15 93.83 646.15 82.5C646.15 76.67 645.32 70.29 648.68 65.15C654.7 55.94 664.8 57.08 674.5 57.08C694.17 57.08 713.83 57.08 733.5 57.08C807.83 57.08 882.17 57.08 956.5 57.08C974.17 57.08 991.83 57.08 1009.5 57.08C1017.6 57.08 1027.08 55.69 1033.23 62.24C1040.46 69.93 1037.94 82.87 1037.94 92.5C1037.94 117.17 1037.94 141.83 1037.94 166.5C1037.94 265.5 1037.94 364.5 1037.94 463.5C1037.94 490.5 1037.94 517.5 1037.94 544.5C1037.94 554.58 1040.8 568.65 1033 576.51C1027.59 581.95 1020.66 581.78 1013.5 581.78C1003.17 581.78 992.83 581.78 982.5 581.78C935.83 581.78 889.17 581.78 842.5 581.78C840.56 593.48 842.05 606.59 842.05 618.5C842.05 642.17 842.05 665.83 842.05 689.5C842.05 762.5 842.05 835.5 842.05 908.5C842.05 937.17 842.05 965.83 842.05 994.5C842.05 1004.11 844.52 1021.72 839.34 1029.78C832.08 1041.08 817.01 1038.05 805.5 1038.05C774.5 1038.05 743.5 1038.05 712.5 1038.05C598.5 1038.05 484.5 1038.05 370.5 1038.05C343.17 1038.05 315.83 1038.05 288.5 1038.05C277.77 1038.05 263.91 1040.76 256.64 1030.83C250.64 1022.65 253.1 1006.33 253.1 996.5C253.1 968.17 253.1 939.83 253.1 911.5C253.1 836.83 253.1 762.17 253.1 687.5C253.1 664.17 253.1 640.83 253.1 617.5C253.1 606.93 254.69 591.69 252.5 581.78C206.17 581.78 159.83 581.78 113.5 581.78C102.83 581.78 92.17 581.78 81.5 581.78C74.66 581.78 67.88 581.96 62.61 576.89C54.42 569 57.22 554.77 57.22 544.5C57.22 517.17 57.22 489.83 57.22 462.5C57.22 364.5 57.22 266.5 57.22 168.5C57.22 143.83 57.22 119.17 57.22 94.5C57.22 84.97 54.6 71.49 61.08 63.54C67.34 55.88 76.56 57.08 85.5 57.08C102.83 57.08 120.17 57.08 137.5 57.08C212.17 57.08 286.83 57.08 361.5 57.08C381.17 57.08 400.83 57.08 420.5 57.08C429.03 57.08 439.3 55.63 445.24 63.25C449.72 68.98 449.04 75.61 449.04 82.5C449.04 93.5 449.04 104.5 449.04 115.5C449.04 145.83 449.04 176.17 449.04 206.5C449.04 216.5 449.04 226.5 449.04 236.5C449.04 242.03 448.58 247.8 449.5 253.22Z" fill="#c7bebe" fill-rule="evenodd" stroke="#c7bebe" stroke-width="0.25" stroke-linejoin="round"/>
</svg>